<svg width="24" height="24" viewBox="0 0 24 24" fill="none" xmlns="http://www.w3.org/2000/svg">
<mask id="mask0_660_646" style="mask-type:alpha" maskUnits="userSpaceOnUse" x="4" y="6" width="16" height="12">
<path fill-rule="evenodd" clip-rule="evenodd" d="M10.8043 6.29929C10.4173 5.90527 9.78421 5.89956 9.39018 6.28655L4.29927 11.2866C4.10782 11.4746 3.99998 11.7317 3.99998 12C3.99998 12.2683 4.10782 12.5254 4.29927 12.7134L9.39018 17.7134C9.78421 18.1004 10.4173 18.0947 10.8043 17.7007C11.1913 17.3067 11.1856 16.6735 10.7916 16.2866L7.44529 13L19 13C19.5523 13 20 12.5523 20 12C20 11.4477 19.5523 11 19 11L7.44529 11L10.7916 7.71345C11.1856 7.32646 11.1913 6.69332 10.8043 6.29929Z" fill="#818A91"/>
</mask>
<g mask="url(#mask0_660_646)">
<rect width="24" height="24" fill="#818A91"/>
</g>
</svg>
